<?xml version="1.0" standalone="no"?>
<!DOCTYPE svg PUBLIC "-//W3C//DTD SVG 20010904//EN"
 "http://www.w3.org/TR/2001/REC-SVG-20010904/DTD/svg10.dtd">
<svg version="1.0" xmlns="http://www.w3.org/2000/svg"
 width="1536.000000pt" height="1536.000000pt" viewBox="0 0 1536.000000 1536.000000"
 preserveAspectRatio="xMidYMid meet">
<metadata>
Created by potrace 1.14, written by Peter Selinger 2001-2017
</metadata>
<g transform="translate(0.000000,1536.000000) scale(0.100000,-0.100000)"
fill="#000000" stroke="none">
<path d="M7331 14764 c-28 -12 -47 -39 -33 -48 4 -2 7 -699 6 -1548 -1 -1402
0 -1545 15 -1560 9 -9 39 -41 68 -71 29 -30 55 -52 58 -49 3 3 5 0 5 -6 0 -6
6 -17 14 -24 53 -51 211 -207 313 -310 67 -68 130 -130 140 -139 10 -9 58 -57
107 -108 49 -50 93 -91 99 -91 6 0 8 -2 5 -5 -5 -5 82 -97 107 -113 6 -4 45
-44 87 -88 43 -45 79 -80 81 -78 2 2 10 -6 17 -19 7 -12 43 -49 80 -82 38 -33
68 -63 69 -66 1 -6 109 -116 148 -150 10 -9 58 -57 107 -108 49 -50 93 -91 99
-91 6 0 8 -2 5 -5 -3 -3 18 -28 46 -56 192 -187 336 -334 336 -341 0 -4 3 -8
8 -8 4 0 30 -23 57 -50 28 -28 70 -70 95 -93 97 -89 180 -178 180 -192 0 -8 5
-15 10 -15 6 0 10 -7 10 -16 0 -8 7 -22 15 -31 8 -8 13 -19 10 -24 -4 -5 -1
-9 5 -9 6 0 8 -4 5 -10 -3 -5 -2 -10 3 -10 28 0 60 -328 32 -345 -5 -3 -7 -12
-4 -19 8 -21 -46 -170 -68 -186 -3 -3 -8 -12 -10 -20 -4 -17 -157 -180 -169
-180 -5 0 -17 -7 -26 -15 -10 -8 -21 -14 -24 -13 -4 2 -15 -4 -25 -13 -16 -14
-78 -37 -184 -67 -38 -11 -178 -7 -244 7 -74 16 -206 70 -206 83 0 5 -5 8 -10
8 -6 0 -23 11 -37 24 -15 14 -29 23 -32 21 -4 -2 -605 596 -1336 1328 l-1330
1332 0 1728 c1 1353 -2 1727 -11 1723 -7 -3 -29 -8 -48 -12 -20 -3 -39 -10
-42 -15 -3 -5 -11 -9 -19 -9 -8 0 -24 -4 -37 -9 -13 -5 -26 -9 -30 -11 -4 -1
-31 -11 -60 -22 -29 -11 -59 -20 -65 -21 -7 0 -13 -3 -13 -7 0 -4 -6 -7 -12
-7 -12 -1 -130 -46 -203 -78 -16 -7 -59 -25 -95 -41 -36 -15 -68 -32 -71 -37
-3 -5 -9 -8 -13 -7 -11 3 -261 -122 -264 -131 -2 -5 -12 -9 -22 -9 -9 0 -23
-7 -30 -15 -7 -8 -17 -15 -22 -15 -6 0 -22 -9 -37 -19 -15 -11 -34 -21 -42
-23 -8 -2 -16 -6 -19 -9 -7 -10 -72 -48 -92 -55 -10 -4 -18 -10 -18 -15 0 -5
-5 -9 -10 -9 -9 0 -87 -47 -100 -60 -13 -13 -70 -50 -78 -50 -5 0 -17 -9 -27
-20 -10 -11 -20 -18 -22 -16 -3 2 -13 -3 -23 -12 -26 -25 -59 -50 -112 -84
-27 -17 -48 -35 -48 -40 0 -4 -6 -8 -13 -8 -7 0 -20 -8 -29 -17 -8 -10 -30
-29 -49 -43 -18 -14 -39 -32 -48 -40 -8 -8 -17 -15 -21 -15 -3 0 -20 -13 -38
-30 -17 -16 -50 -46 -73 -65 -132 -112 -514 -490 -495 -490 2 0 -8 -13 -22
-28 -15 -15 -44 -48 -65 -72 -20 -25 -48 -57 -62 -72 -14 -15 -25 -31 -25 -35
0 -5 -8 -16 -17 -25 -21 -20 -36 -39 -104 -133 -28 -38 -55 -71 -60 -73 -5 -2
-9 -8 -9 -14 0 -9 -57 -95 -71 -108 -3 -3 -27 -40 -54 -83 -26 -43 -53 -84
-59 -91 -6 -6 -12 -18 -14 -26 -2 -8 -10 -22 -18 -31 -8 -8 -14 -21 -14 -27 0
-7 -3 -12 -7 -12 -5 0 -21 -28 -38 -61 -16 -33 -38 -69 -48 -80 -10 -10 -15
-19 -12 -19 8 0 -47 -104 -57 -108 -5 -2 -8 -12 -8 -22 0 -9 -7 -23 -15 -30
-8 -6 -14 -15 -13 -18 1 -4 -12 -36 -29 -72 -78 -167 -93 -201 -93 -214 0 -8
-4 -16 -10 -18 -5 -2 -11 -12 -13 -23 -2 -11 -11 -35 -20 -53 -10 -18 -15 -37
-12 -42 3 -6 1 -10 -4 -10 -6 0 -11 -8 -11 -18 0 -10 -4 -22 -9 -27 -4 -6 -20
-46 -35 -90 -15 -44 -30 -87 -33 -95 -3 -8 -5 -21 -4 -27 1 -7 -4 -13 -10 -13
-7 0 -9 -3 -6 -7 4 -3 2 -12 -4 -20 -6 -7 -9 -13 -5 -13 3 0 1 -12 -5 -27 -6
-16 -13 -37 -15 -48 -7 -27 -10 -37 -17 -55 -3 -8 -16 -53 -27 -100 -12 -47
-24 -92 -27 -100 -4 -8 -7 -19 -8 -25 -8 -62 -19 -106 -25 -110 -5 -3 -6 -14
-3 -24 3 -10 0 -22 -5 -25 -6 -3 -8 -15 -5 -26 3 -11 1 -20 -4 -20 -5 0 -9
-10 -8 -22 1 -13 -4 -43 -10 -68 -6 -25 -10 -51 -7 -58 2 -7 -1 -18 -7 -25 -5
-7 -10 -22 -10 -32 0 -11 -2 -42 -6 -70 -4 -27 -8 -63 -10 -80 -1 -16 -4 -30
-5 -30 -4 0 -9 -61 -14 -142 -2 -33 -6 -65 -9 -70 -13 -20 -17 -717 -5 -853
17 -200 24 -263 27 -270 2 -3 5 -23 7 -45 2 -22 6 -60 9 -85 4 -25 8 -56 10
-70 2 -14 4 -25 5 -25 2 0 4 -9 5 -20 2 -11 6 -40 9 -64 3 -23 8 -46 11 -51 2
-4 7 -22 9 -41 3 -19 10 -53 16 -77 6 -24 8 -47 5 -53 -4 -5 -2 -9 3 -9 6 0
12 -15 15 -32 3 -18 13 -62 22 -98 9 -36 18 -69 19 -75 1 -5 5 -16 9 -22 5 -7
6 -13 3 -13 -3 0 -1 -12 5 -27 6 -16 13 -39 16 -53 2 -13 9 -30 15 -37 6 -7 8
-13 5 -13 -4 0 0 -18 8 -39 7 -22 11 -42 8 -45 -4 -3 -1 -6 6 -6 6 0 11 -6 10
-12 -1 -7 1 -20 4 -28 22 -53 87 -239 87 -249 0 -6 5 -11 10 -11 6 0 10 -7 10
-15 0 -8 11 -39 24 -70 14 -30 22 -55 18 -55 -4 0 -1 -4 6 -9 7 -4 14 -14 16
-22 2 -15 23 -60 89 -199 22 -47 39 -86 36 -87 -2 -1 7 -13 20 -27 14 -14 21
-26 17 -26 -5 0 -4 -6 2 -13 6 -7 24 -37 40 -67 39 -75 54 -101 74 -129 10
-13 15 -27 12 -32 -3 -5 0 -9 6 -9 6 0 14 -8 18 -17 12 -30 65 -117 84 -137
10 -11 18 -24 18 -28 0 -8 38 -66 50 -78 3 -3 21 -29 39 -57 18 -29 37 -53 42
-53 5 0 9 -6 9 -12 0 -7 13 -28 29 -47 17 -19 28 -38 25 -43 -3 -4 -1 -8 4 -8
5 0 34 -33 65 -72 31 -40 65 -83 76 -95 12 -12 21 -27 21 -33 0 -6 4 -9 9 -5
5 3 12 -3 15 -12 13 -38 294 -335 456 -483 45 -41 98 -90 117 -107 19 -18 37
-33 40 -33 3 0 11 -6 17 -14 6 -7 56 -49 111 -92 55 -43 102 -81 105 -84 3 -4
28 -22 55 -41 28 -18 52 -36 55 -39 15 -15 152 -110 159 -110 4 0 16 -9 26
-20 10 -11 22 -20 27 -20 5 0 36 -18 68 -40 32 -22 63 -40 68 -40 5 0 17 -9
27 -20 10 -11 22 -20 26 -20 4 0 46 -23 94 -50 48 -28 89 -50 92 -50 3 0 18
-9 34 -21 16 -11 29 -17 29 -14 0 3 12 -2 28 -13 15 -11 30 -20 35 -21 15 -2
112 -54 115 -62 2 -4 10 -5 18 -2 8 3 14 0 14 -6 0 -6 3 -10 8 -9 8 2 39 -11
110 -45 33 -16 52 -21 53 -14 1 7 2 444 3 972 l1 960 -948 948 c-522 521 -953
947 -958 947 -5 0 -9 5 -9 10 0 14 -139 150 -152 150 -6 0 -9 3 -5 6 3 3 -28
38 -70 78 -161 153 -200 194 -195 208 1 5 -2 8 -8 8 -13 0 -75 136 -84 185 -5
22 -10 44 -14 49 -8 14 -8 227 1 233 4 2 7 13 7 24 0 32 40 142 60 164 9 11
15 26 12 34 -3 8 0 11 7 7 9 -6 16 6 9 17 -4 6 120 127 131 127 7 0 10 4 6 9
-3 5 7 16 22 24 16 7 45 23 66 35 20 12 37 18 37 14 0 -4 4 -2 8 4 26 42 270
69 395 44 34 -6 67 -15 72 -18 6 -4 12 -7 15 -7 15 -3 85 -37 109 -54 16 -11
31 -18 35 -14 3 3 6 1 6 -5 0 -6 12 -18 28 -26 25 -13 328 -308 415 -405 20
-22 37 -39 37 -38 0 2 502 -498 1115 -1112 l1115 -1115 0 -1418 c0 -1411 0
-1418 20 -1420 54 -5 80 -8 140 -17 36 -6 99 -13 140 -16 41 -4 93 -9 115 -11
38 -5 48 -5 78 -3 6 0 22 -2 35 -5 12 -3 22 0 22 6 0 7 4 7 13 0 7 -5 105 -10
240 -11 181 -2 227 0 228 11 4 79 2 2468 -2 2468 -3 0 -5 9 -5 20 1 13 -77 98
-228 250 -127 126 -233 230 -237 230 -4 0 -9 5 -11 10 -4 14 -1291 1300 -1300
1300 -5 0 -8 4 -8 8 0 10 -272 282 -282 282 -4 0 -8 4 -8 9 0 5 -30 37 -67 72
-141 132 -189 186 -225 257 -21 39 -38 78 -38 87 0 8 -4 15 -8 15 -4 0 -8 10
-9 23 -1 12 -4 33 -8 47 -10 35 -13 244 -4 250 5 3 10 22 12 41 5 48 66 176
107 222 17 20 30 37 27 37 -3 0 8 14 25 30 16 17 31 30 34 30 2 0 24 16 49 35
56 43 168 95 211 99 17 2 35 6 40 9 7 4 145 3 277 -3 9 -1 17 -6 17 -12 0 -6
3 -8 7 -5 3 4 12 2 20 -4 7 -6 13 -9 13 -5 0 4 14 0 30 -9 17 -9 30 -12 30 -8
0 5 5 0 11 -10 6 -9 14 -15 18 -13 4 3 17 -4 29 -14 12 -11 26 -20 32 -20 5 0
10 -4 10 -10 0 -5 7 -10 16 -10 12 0 388 -364 609 -589 6 -6 476 -478 1046
-1048 l1036 -1038 0 -1413 c0 -777 3 -1415 6 -1418 5 -5 78 14 127 33 8 4 18
7 23 8 4 2 9 4 12 5 3 1 10 4 15 5 6 1 13 4 18 5 4 1 12 3 17 5 6 1 13 3 18 5
4 1 10 3 15 5 4 1 21 7 37 14 53 22 139 53 163 58 12 3 22 10 22 15 0 5 3 7 8
4 4 -2 23 3 42 12 19 8 37 16 40 17 24 8 54 21 105 45 64 29 91 40 101 39 4 0
10 3 13 8 3 4 31 19 61 33 30 14 58 29 62 35 4 5 11 10 15 10 19 2 58 19 71
31 7 8 18 12 23 9 5 -4 9 -2 9 4 0 5 10 13 23 17 12 4 51 24 86 45 34 22 66
39 70 39 4 0 18 10 31 22 14 13 26 21 28 19 2 -2 11 1 21 7 64 44 203 132 207
132 3 0 12 6 19 13 25 22 39 32 93 66 28 18 52 37 52 42 0 5 5 9 11 9 6 0 23
10 38 23 15 12 40 31 56 42 15 11 36 27 45 36 9 8 25 22 37 30 19 13 103 82
127 104 6 6 29 25 51 44 154 131 280 256 501 497 74 80 164 194 164 206 0 5 4
7 9 4 5 -3 14 8 21 24 7 17 15 28 18 26 2 -3 19 16 36 42 17 26 38 55 48 66 9
10 47 64 84 120 38 55 71 103 74 106 3 3 10 14 17 25 46 75 80 131 95 154 10
14 22 36 28 49 5 13 17 30 25 39 8 8 13 19 10 24 -4 5 -3 9 2 9 4 0 26 35 48
78 22 42 43 79 46 82 3 3 12 22 20 43 7 20 17 37 22 37 4 0 6 4 2 9 -3 6 2 14
11 19 9 5 15 11 14 13 -2 7 11 42 26 70 7 14 11 28 8 31 -2 3 2 11 11 18 8 7
15 16 15 20 0 5 14 39 32 77 17 37 33 77 35 88 2 10 9 23 16 27 6 4 8 8 3 8
-5 0 -3 7 4 15 7 8 9 15 6 15 -4 0 -1 10 6 23 6 12 13 27 14 32 1 6 14 39 29
75 14 36 29 76 31 90 3 13 8 27 12 30 4 3 7 10 7 15 1 19 27 100 36 111 5 6 6
14 2 17 -3 4 0 13 7 22 7 8 10 15 7 15 -3 0 3 25 13 55 10 30 16 55 13 55 -3
0 0 7 7 15 6 8 9 19 5 25 -3 5 -1 10 5 10 6 0 10 6 8 13 -1 6 2 22 6 35 4 12
9 32 10 45 2 12 6 29 9 37 7 18 57 251 63 295 2 17 6 40 8 52 6 30 20 115 22
136 1 9 3 18 4 20 1 1 4 18 6 37 1 19 6 58 9 85 5 49 8 73 21 220 11 110 16
735 7 735 -5 0 -9 28 -9 63 -1 58 -7 128 -19 237 -3 25 -7 61 -9 80 -2 19 -6
43 -11 53 -4 9 -5 26 -2 37 3 11 1 23 -5 26 -5 3 -7 17 -4 29 3 13 2 26 -3 30
-5 3 -10 13 -9 23 0 21 -7 63 -22 126 -6 27 -9 55 -6 62 3 7 1 14 -4 16 -5 2
-11 21 -13 44 -2 23 -8 47 -13 55 -5 8 -9 19 -9 24 -2 32 -19 102 -27 113 -6
6 -8 12 -5 12 3 0 -3 27 -13 60 -10 33 -16 60 -13 60 3 0 0 6 -6 14 -6 7 -12
25 -13 40 -1 14 -6 26 -10 26 -4 0 -6 8 -6 18 1 20 -5 45 -12 52 -3 3 -25 65
-49 138 -25 72 -47 132 -51 132 -4 0 -7 6 -8 13 -2 26 -18 69 -49 135 -9 19
-16 40 -16 48 0 8 -3 14 -7 14 -3 0 -12 17 -19 38 -8 20 -33 76 -57 125 -24
48 -40 87 -36 87 4 0 2 4 -4 8 -6 4 -24 33 -40 65 -53 104 -57 112 -68 119 -6
4 -8 8 -4 8 6 0 -8 26 -73 140 -8 14 -16 27 -19 30 -5 5 -18 27 -44 75 -6 11
-14 22 -17 25 -3 3 -16 24 -29 48 -13 23 -27 42 -32 42 -4 0 -8 6 -8 13 0 7
-9 23 -20 35 -11 12 -20 24 -20 27 0 3 -4 11 -10 18 -37 45 -130 179 -130 187
0 6 -4 10 -8 10 -5 0 -24 21 -42 48 -19 26 -37 49 -40 52 -3 3 -18 21 -33 40
-65 80 -84 103 -119 140 -21 22 -38 42 -38 44 0 7 -104 118 -221 235 -84 84
-125 122 -268 251 -16 14 -47 41 -71 59 -23 19 -48 41 -56 48 -7 7 -17 13 -22
13 -6 0 -12 4 -14 9 -3 8 -138 117 -188 151 -12 8 -55 39 -95 68 -40 28 -78
52 -84 52 -6 0 -11 4 -11 8 0 4 -15 16 -32 27 -18 10 -35 21 -38 24 -3 3 -21
15 -40 25 -19 11 -37 22 -40 25 -3 4 -22 15 -42 26 -21 11 -38 24 -38 29 0 5
-3 7 -6 3 -3 -3 -29 9 -57 27 -29 18 -62 36 -74 40 -13 4 -23 11 -23 16 0 6
-36 21 -49 19 -2 0 -7 3 -10 8 -8 12 -284 148 -293 145 -5 -1 -8 2 -8 8 0 5
-8 10 -18 10 -10 0 -22 4 -28 8 -5 5 -29 17 -54 27 -25 9 -51 20 -59 23 -10 4
-13 0 -9 -15 3 -12 2 -27 -3 -34 -4 -7 -5 -17 -2 -23 9 -13 10 -107 1 -112 -3
-2 -3 -17 1 -32 4 -15 5 -38 1 -52 -4 -14 -4 -32 -1 -40 8 -20 7 -52 -2 -67
-4 -6 -3 -14 2 -17 5 -4 6 -18 2 -34 -4 -15 -5 -38 -1 -52 4 -14 3 -33 -2 -42
-4 -9 -5 -19 -1 -21 10 -6 9 -59 -1 -75 -3 -6 -2 -13 3 -16 5 -4 6 -18 2 -34
-4 -15 -5 -38 -1 -52 4 -14 3 -33 -2 -42 -4 -9 -5 -19 -1 -21 10 -6 9 -59 -1
-75 -3 -6 -2 -13 3 -16 5 -4 6 -18 2 -34 -4 -15 -5 -39 -1 -53 4 -15 4 -33 -1
-40 -4 -7 -5 -17 -2 -22 8 -14 9 -77 1 -77 -4 0 -4 -11 1 -23 5 -13 5 -30 1
-37 -5 -8 -6 -18 -3 -24 9 -14 9 -66 0 -66 -5 0 -5 -5 -2 -11 10 -16 12 -79 2
-79 -4 0 -5 -5 -1 -11 4 -6 7 -33 7 -59 0 -26 -3 -53 -7 -59 -4 -6 -3 -11 1
-11 5 0 8 -12 7 -27 -4 -46 -5 -76 -2 -108 2 -16 0 -35 -5 -42 -4 -6 -4 -14 2
-17 5 -4 6 -18 2 -34 -4 -15 -5 -38 -1 -52 4 -14 3 -33 -2 -42 -4 -9 -5 -19
-1 -21 10 -6 9 -59 -1 -75 -3 -6 -2 -13 3 -16 5 -4 6 -18 2 -34 -4 -15 -5 -38
-1 -52 4 -14 3 -33 -2 -42 -4 -9 -5 -19 -1 -21 10 -6 9 -59 -1 -75 -3 -6 -3
-13 2 -15 4 -3 6 -23 5 -44 -5 -65 -4 -112 2 -122 3 -5 1 -12 -5 -16 -7 -4 -7
-12 0 -24 5 -10 7 -21 4 -24 -6 -6 -6 -41 -1 -109 1 -21 -1 -38 -6 -38 -4 0
-4 -7 1 -16 5 -9 7 -25 5 -34 -3 -12 314 -335 1096 -1116 606 -604 1125 -1121
1154 -1149 57 -54 107 -117 107 -134 0 -6 5 -11 12 -11 6 0 9 -3 5 -6 -3 -3 6
-26 19 -50 14 -24 22 -44 18 -44 -4 0 -1 -7 6 -15 7 -8 10 -21 7 -30 -4 -8 -2
-17 4 -20 5 -4 7 -10 4 -15 -3 -5 -1 -11 4 -14 5 -3 7 -56 5 -119 -4 -136 -4
-138 -11 -157 -4 -8 -7 -18 -8 -22 -2 -5 -3 -9 -5 -10 -1 -3 -7 -23 -13 -51
-13 -59 -188 -277 -223 -277 -8 0 -14 -3 -14 -8 0 -13 -147 -82 -177 -82 -11
0 -23 -3 -27 -7 -3 -4 -16 -8 -29 -10 -39 -7 -212 -9 -222 -4 -11 6 -29 10
-62 13 -13 1 -23 6 -23 10 0 4 -7 8 -15 8 -13 0 -49 14 -114 44 -13 6 -37 23
-53 38 -16 15 -36 28 -44 30 -8 2 -585 574 -1282 1271 -697 697 -1273 1273
-1280 1280 -64 61 -102 103 -103 111 -1 6 -2 788 -3 1738 -1 949 -3 1729 -6
1732 -8 7 -71 19 -99 17 -12 0 -28 2 -34 6 -12 7 -87 13 -167 14 -24 0 -49 3
-55 7 -24 16 -609 21 -644 6z"/>
<path d="M3333 3592 c-21 -3 -23 -9 -24 -65 -1 -183 1 -358 5 -365 3 -5 374
-8 459 -3 16 1 17 18 17 216 l0 215 -52 0 c-29 0 -127 1 -218 3 -91 1 -175 1
-187 -1z"/>
<path d="M4325 3590 l-69 -5 -1 -1188 c0 -653 2 -1195 6 -1203 4 -14 35 -16
236 -16 128 0 236 2 240 5 5 3 9 202 8 442 0 240 3 442 7 447 4 7 103 12 285
14 355 4 385 5 403 11 15 6 79 13 115 14 10 0 24 4 30 8 8 7 48 20 75 25 3 1
11 5 18 9 6 5 12 6 12 3 0 -6 122 63 130 74 3 3 21 16 40 28 19 12 31 22 27
22 -5 0 5 12 22 26 35 29 131 169 131 190 0 8 5 14 10 14 6 0 9 3 9 8 -1 4 0
9 1 12 2 5 7 29 13 53 1 6 6 18 10 25 5 6 6 16 2 21 -3 5 -1 12 5 16 5 3 8 19
6 35 -2 17 0 30 5 30 11 0 3 300 -9 331 -6 15 -8 29 -5 32 3 3 1 12 -3 19 -5
7 -9 15 -9 18 -5 27 -32 98 -42 108 -7 7 -13 18 -13 23 0 36 -177 229 -210
229 -5 0 -13 6 -17 13 -9 13 -64 41 -128 64 -36 13 -60 18 -135 29 -95 14
-1050 25 -1205 14z m955 -423 c70 -8 99 -16 139 -38 58 -31 75 -43 89 -61 7
-9 18 -23 25 -30 21 -23 47 -75 40 -82 -3 -3 -1 -6 5 -6 6 0 11 -8 11 -17 0
-10 2 -48 5 -85 2 -37 0 -70 -4 -73 -5 -3 -7 -12 -3 -20 3 -8 0 -15 -6 -15 -6
0 -8 -7 -5 -15 4 -8 1 -15 -6 -15 -6 0 -9 -4 -6 -9 7 -11 -55 -91 -91 -117
-46 -34 -106 -58 -178 -69 -5 -1 -14 -3 -20 -5 -5 -1 -38 -2 -72 -2 -35 1 -63
-2 -63 -6 0 -4 -88 -7 -195 -7 -166 0 -195 2 -196 15 -3 45 -4 647 -1 657 3 8
67 11 245 8 133 -1 262 -5 287 -8z"/>
<path d="M8459 3592 l-96 -3 0 -1200 c0 -1005 3 -1202 14 -1206 8 -3 115 -6
238 -7 l225 -1 0 30 c0 17 0 54 1 83 1 29 -1 55 -4 58 -3 3 -2 18 3 33 4 15 3
35 -2 44 -5 10 -5 17 0 17 5 0 6 19 3 43 -4 23 -4 56 -1 72 3 17 3 49 -1 72
-3 24 -4 45 -1 47 6 7 5 146 -1 153 -3 2 -2 17 3 32 4 15 3 35 -2 44 -5 10 -5
17 0 17 5 0 6 19 3 43 -4 23 -4 56 -1 72 3 17 3 49 -1 72 -3 24 -4 45 -1 47 6
7 5 146 -1 153 -3 2 -2 17 3 32 4 15 3 35 -2 44 -5 10 -5 17 0 17 5 0 6 19 3
43 -4 23 -4 56 -1 72 3 17 3 49 -1 72 -3 24 -4 45 -1 47 6 7 5 146 -1 153 -3
2 -2 17 3 32 4 15 3 35 -2 44 -5 10 -5 17 0 17 5 0 6 19 3 43 -4 23 -4 56 -1
72 3 17 3 49 -1 72 -3 24 -4 45 -1 47 6 7 5 146 -1 153 -3 2 -2 17 3 32 4 15
3 35 -2 44 -6 11 -5 17 2 17 6 0 8 4 5 10 -6 10 -7 75 -3 168 l3 52 -40 0
c-22 1 -87 2 -145 3 -58 1 -148 1 -201 -1z"/>
<path d="M6990 2959 c0 -3 -12 -6 -27 -6 -36 -1 -85 -10 -118 -23 -14 -5 -29
-9 -33 -8 -12 3 -142 -64 -142 -74 0 -4 -5 -8 -11 -8 -14 0 -109 -92 -109
-106 0 -7 -6 -14 -13 -17 -14 -5 -82 -137 -103 -202 -16 -48 -16 -63 2 -61 11
2 24 0 29 -5 6 -4 20 -6 30 -5 11 2 25 0 30 -5 6 -4 20 -6 30 -5 11 2 25 -1
31 -6 7 -5 16 -8 20 -7 13 3 86 -11 112 -21 14 -6 22 -6 22 1 0 6 6 6 18 1 9
-5 33 -12 52 -15 35 -7 35 -6 59 48 38 88 98 142 181 161 51 11 193 12 207 1
7 -5 22 -7 33 -4 11 3 20 1 20 -5 0 -6 6 -8 14 -5 8 3 16 3 18 -1 2 -4 16 -14
32 -23 16 -9 34 -27 41 -40 30 -57 37 -79 32 -93 -4 -9 -3 -16 1 -16 4 0 9
-20 9 -46 2 -48 -9 -58 -77 -71 -13 -2 -29 -8 -35 -12 -5 -5 -18 -7 -27 -6
-10 2 -18 -1 -18 -7 0 -6 -9 -8 -20 -5 -11 3 -20 1 -20 -5 0 -6 -11 -8 -25 -6
-14 3 -25 2 -25 -2 0 -4 -21 -11 -47 -14 -27 -4 -55 -9 -63 -11 -20 -5 -118
-25 -220 -46 -30 -6 -60 -15 -66 -20 -6 -5 -14 -6 -17 -3 -3 3 -12 2 -19 -2
-7 -5 -15 -9 -18 -10 -3 -1 -16 -5 -30 -10 -14 -4 -27 -6 -29 -5 -2 2 -7 -2
-10 -8 -4 -6 -16 -12 -26 -13 -22 -4 -157 -90 -150 -96 2 -2 -12 -18 -31 -35
-19 -18 -34 -38 -34 -44 0 -7 -5 -13 -11 -13 -5 0 -7 -4 -4 -10 3 -5 1 -10 -5
-10 -6 0 -9 -4 -5 -9 3 -5 -2 -17 -11 -25 -8 -9 -13 -16 -9 -16 3 0 1 -8 -4
-19 -6 -10 -13 -33 -17 -52 -9 -42 -10 -215 -2 -249 16 -66 21 -80 29 -80 5 0
9 -8 9 -18 0 -10 5 -23 12 -30 7 -7 9 -12 5 -12 -9 0 14 -26 86 -100 60 -61
173 -125 237 -135 8 -1 35 -6 60 -10 51 -9 221 -9 272 0 105 18 267 90 328
145 9 8 31 27 48 42 l31 27 7 -37 c4 -20 13 -49 21 -64 7 -16 11 -28 7 -28 -4
0 -1 -7 6 -15 7 -8 9 -15 4 -15 -4 0 -3 -5 3 -11 10 -10 459 -17 469 -6 2 2
-7 28 -21 58 -14 30 -25 62 -25 72 0 9 -5 17 -10 17 -6 0 -9 3 -9 8 1 4 1 9
-1 12 -1 3 -3 16 -5 30 -2 14 -6 39 -10 55 -3 17 -7 50 -8 75 -1 25 -5 50 -8
55 -3 6 -5 220 -4 478 0 257 -2 467 -6 467 -3 0 -6 15 -7 33 0 17 -3 43 -6 57
-3 14 -7 32 -9 40 -11 55 -109 190 -137 190 -5 0 -10 4 -10 8 0 7 -27 22 -161
88 -14 8 -29 11 -32 7 -4 -3 -12 -2 -19 4 -7 5 -23 8 -35 7 -13 0 -23 2 -23 6
0 3 -15 6 -32 5 -18 -1 -37 1 -43 4 -13 8 -405 8 -405 0z m465 -1051 c-3 -88
-9 -165 -16 -215 -1 -7 -6 -13 -11 -13 -4 0 -7 -3 -6 -7 4 -12 -40 -83 -52
-83 -5 0 -10 -6 -10 -13 0 -7 -8 -17 -19 -22 -10 -6 -47 -25 -81 -43 -61 -33
-103 -44 -165 -43 -29 0 -77 7 -82 11 -2 2 -6 3 -10 5 -22 6 -49 20 -61 32 -7
7 -19 16 -26 20 -7 5 -26 30 -42 58 -54 93 -29 201 59 259 36 23 137 60 194
71 10 2 18 4 18 5 0 1 11 3 25 5 14 2 36 6 50 10 14 3 34 8 45 10 24 4 50 11
93 24 17 5 32 8 32 6 0 -2 15 2 33 10 17 8 33 14 34 15 1 0 0 -46 -2 -102z"/>
<path d="M10125 2961 c-3 -2 -15 -5 -27 -7 -39 -6 -53 -9 -65 -17 -7 -5 -13
-6 -13 -3 0 7 -144 -69 -167 -87 -8 -7 -37 -33 -64 -59 -27 -25 -49 -44 -49
-41 0 3 -9 -5 -19 -18 l-20 -24 1 85 c0 47 -1 99 -1 115 l-1 30 -210 -1 c-116
-1 -213 -4 -217 -8 -4 -3 -7 -396 -7 -873 -1 -659 2 -867 11 -870 16 -6 453
-9 454 -3 1 3 3 194 5 425 4 517 11 696 28 723 4 7 5 16 1 21 -3 5 -1 12 5 16
6 4 8 10 5 15 -3 5 -1 11 5 15 6 4 8 11 5 16 -4 5 -2 9 4 9 5 0 13 10 17 23
17 55 88 113 174 144 61 21 162 23 198 4 12 -6 22 -9 22 -6 0 3 14 -7 31 -22
57 -51 76 -107 84 -243 2 -30 7 -63 10 -72 4 -10 3 -18 -1 -18 -5 0 -8 -44 -6
-97 3 -119 3 -96 2 -228 -1 -60 1 -119 3 -130 2 -11 2 -24 -1 -29 -3 -6 -5
-51 -4 -100 2 -50 3 -95 3 -101 0 -5 -1 -59 -1 -120 -1 -60 1 -119 3 -130 2
-11 2 -24 -1 -29 -5 -9 -6 -37 -3 -78 1 -10 55 -13 238 -11 l238 1 2 509 c2
279 7 537 12 573 5 35 7 68 5 72 -3 5 0 8 5 8 6 0 11 8 11 18 0 27 49 121 80
151 31 31 53 46 100 68 47 22 56 24 126 25 82 2 146 -29 185 -90 16 -25 26
-48 24 -53 -3 -4 -1 -10 5 -14 6 -4 8 -11 5 -16 -4 -5 -3 -14 1 -20 12 -20 13
-91 15 -666 0 -420 4 -563 12 -564 7 0 112 -1 234 -2 l223 -2 0 90 c4 894 0
1224 -15 1300 -9 44 -21 83 -27 86 -5 3 -9 9 -8 13 4 13 -22 66 -32 66 -5 0
-6 5 -3 10 3 6 -1 13 -9 16 -9 3 -16 10 -16 15 0 17 -45 61 -102 100 -31 22
-59 39 -61 39 -3 0 -22 8 -43 17 -41 17 -53 21 -94 27 -14 2 -25 5 -25 6 0 1
-57 3 -127 4 -71 1 -128 -1 -128 -5 0 -4 -11 -6 -25 -4 -14 1 -25 -2 -25 -7 0
-5 -4 -7 -9 -3 -5 3 -12 1 -16 -4 -3 -5 -13 -9 -23 -9 -19 1 -152 -75 -197
-113 -45 -38 -105 -101 -105 -110 0 -5 -7 -6 -15 -3 -8 4 -15 10 -15 15 0 26
-145 166 -187 181 -18 7 -33 15 -33 18 0 3 -10 6 -22 7 -11 1 -24 6 -27 10 -6
9 -21 13 -61 18 -14 1 -25 4 -25 5 0 4 -236 6 -240 1z"/>
<path d="M3314 2928 c-7 -11 -7 -1739 0 -1745 4 -5 129 -6 404 -4 l72 1 0 875
0 875 -27 1 c-140 5 -446 2 -449 -3z"/>
</g>
</svg>
